<svg xmlns="http://www.w3.org/2000/svg" version="1.1" xmlns:xlink="http://www.w3.org/1999/xlink" xmlns:svgjs="http://svgjs.dev/svgjs" width="2000" height="2000" viewBox="0 0 2000 2000"><g transform="matrix(1,0,0,1,-0.9999999999998863,-0.9986396109821953)"><svg viewBox="0 0 280 280" data-background-color="#ffffff" preserveAspectRatio="xMidYMid meet" height="2000" width="2000" xmlns="http://www.w3.org/2000/svg" xmlns:xlink="http://www.w3.org/1999/xlink"><g id="tight-bounds" transform="matrix(1,0,0,1,0.13999999999998636,0.13992312873580204)"><svg viewBox="0 0 279.72 279.72" height="279.72" width="279.72"><g><svg viewBox="0 0 279.72 279.72" height="279.72" width="279.72"><g><svg viewBox="0 0 279.72 279.72" height="279.72" width="279.72"><g id="textblocktransform"><svg viewBox="0 0 279.72 279.72" height="279.72" width="279.72" id="textblock"><g><svg viewBox="0 0 279.72 279.72" height="279.72" width="279.72"><g transform="matrix(1,0,0,1,57.446704652707865,57.446704652707865)"><svg viewBox="0 0 164.8265906945843 164.8265906945843" height="164.8265906945843" width="164.8265906945843"><g id="icon-0"><circle r="82" cx="82.41329534729215" cy="82.41329534729215" fill="#000000" data-fill-palette-color="accent"></circle><svg xmlns="http://www.w3.org/2000/svg" xmlns:xlink="http://www.w3.org/1999/xlink" version="1.1" x="24.72398860418764" y="24.723988604187646" viewBox="5 5 90 90" enable-background="new 0 0 100 100" xml:space="preserve" height="115.378613486209" width="115.378613486209" class="icon-jxe-0" data-fill-palette-color="quaternary" id="jxe-0"><path d="M94.527 5H88.698L88.682 5.938C88.66 7.336 87.666 8.28 86.266 8.28S83.872 7.351 83.85 5.954L83.833 5H79.585L79.569 5.938C79.547 7.335 78.553 8.28 77.153 8.28 75.752 8.28 74.759 7.352 74.736 5.954L74.72 5H70.472L70.456 5.938C70.433 7.336 69.44 8.28 68.039 8.28S65.645 7.352 65.623 5.954L65.607 5H61.358L61.342 5.938C61.32 7.336 60.326 8.28 58.926 8.28 57.525 8.28 56.532 7.351 56.509 5.954L56.493 5H52.245L52.229 5.938C52.207 7.335 51.213 8.28 49.812 8.28S47.418 7.352 47.395 5.954L47.38 5H43.132L43.116 5.938C43.094 7.335 42.1 8.28 40.7 8.28 39.299 8.28 38.306 7.352 38.283 5.954L38.267 5H34.018L34.002 5.938C33.98 7.336 32.986 8.28 31.585 8.28S29.191 7.351 29.168 5.954L29.153 5H24.905L24.889 5.938C24.867 7.335 23.873 8.28 22.472 8.28S20.078 7.352 20.056 5.954L20.04 5H15.792L15.776 5.938C15.753 7.335 14.76 8.28 13.359 8.28S10.965 7.352 10.942 5.954L10.926 5H5V95H95V5zM87 74H13V73H87zM87 65H13V64H87zM87 56H13V55H87zM87 46H13V45H87zM87 37H13V36H87zM87 28H13V27H87z" fill="#ffffff" data-fill-palette-color="quaternary"></path></svg></g></svg></g><g id="text-0"><path d="M15.049 107.3l-0.652 2.129-13.452-4.122 0.543-1.774 1.992 0.393 0.016-0.052c-0.442-0.843-0.77-1.697-0.985-2.562-0.217-0.858-0.182-1.753 0.104-2.685v0c0.428-1.398 1.189-2.292 2.282-2.68 1.093-0.388 2.499-0.319 4.217 0.208v0l8.547 2.618-0.645 2.109-8.276-2.536c-1.28-0.392-2.275-0.473-2.986-0.241-0.719 0.236-1.222 0.821-1.507 1.753v0c-0.213 0.696-0.222 1.382-0.026 2.058 0.198 0.67 0.541 1.463 1.029 2.381v0z" fill="#000000" data-fill-palette-color="primary"></path><path d="M22.535 88.88v0c-0.476 1.03-1.186 1.873-2.13 2.527-0.934 0.651-2.026 1.02-3.277 1.107-1.248 0.081-2.578-0.205-3.992-0.858v0c-1.42-0.656-2.507-1.487-3.261-2.493-0.751-1.012-1.184-2.086-1.301-3.222-0.113-1.143 0.068-2.229 0.545-3.259v0c0.485-1.05 1.2-1.903 2.143-2.557 0.944-0.654 2.044-1.024 3.301-1.108 1.254-0.078 2.592 0.211 4.012 0.867v0c1.414 0.653 2.494 1.481 3.241 2.484 0.744 1.009 1.17 2.083 1.276 3.223 0.113 1.143-0.073 2.239-0.557 3.289zM20.86 88.106v0c0.528-1.143 0.493-2.281-0.105-3.415-0.592-1.131-1.637-2.043-3.137-2.736v0c-1.506-0.696-2.885-0.904-4.136-0.624-1.258 0.277-2.151 0.986-2.679 2.129v0c-0.342 0.74-0.434 1.495-0.277 2.265 0.164 0.773 0.549 1.492 1.156 2.157 0.604 0.672 1.407 1.239 2.411 1.703v0c1.499 0.693 2.872 0.898 4.116 0.615 1.251-0.28 2.135-0.977 2.651-2.094z" fill="#000000" data-fill-palette-color="primary"></path><path d="M30.021 75.081v0c-0.766 1.263-1.665 1.918-2.697 1.964-1.03 0.056-2.136-0.274-3.318-0.991v0l-6.803-4.126-1.082 1.782-1.465-0.888 1.05-1.942-3.774-2.596 0.968-1.596 3.91 2.372 2.004-3.304 1.558 0.945-2.003 3.304 6.85 4.155c0.747 0.453 1.408 0.667 1.985 0.642 0.583-0.021 1.088-0.383 1.513-1.086v0c0.128-0.212 0.242-0.449 0.343-0.712 0.1-0.263 0.17-0.548 0.212-0.854v0l1.589 0.39c-0.049 0.404-0.141 0.829-0.276 1.275-0.134 0.446-0.322 0.868-0.564 1.266z" fill="#000000" data-fill-palette-color="primary"></path><path d="M37.072 65.126v0c-0.744 0.997-1.655 1.724-2.733 2.182-1.077 0.458-2.237 0.6-3.479 0.426-1.237-0.179-2.471-0.728-3.701-1.646v0c-1.224-0.914-2.104-1.943-2.639-3.088-0.525-1.146-0.739-2.282-0.643-3.409 0.101-1.132 0.471-2.127 1.111-2.984v0c1.058-1.417 2.351-2.163 3.879-2.239 1.534-0.072 3.117 0.502 4.75 1.721v0c0.408 0.305 0.741 0.589 0.997 0.853v0l-5.74 7.688c1.272 0.85 2.541 1.212 3.807 1.086 1.26-0.131 2.304-0.75 3.131-1.858v0c0.422-0.566 0.732-1.138 0.928-1.718 0.201-0.585 0.318-1.179 0.35-1.782v0l1.581 0.199c-0.028 0.742-0.155 1.491-0.384 2.248-0.227 0.766-0.632 1.54-1.215 2.321zM27.566 63.681v0l4.624-6.192c-1.184-0.884-2.269-1.309-3.258-1.275-0.992 0.04-1.828 0.515-2.507 1.425v0c-0.609 0.816-0.838 1.785-0.686 2.907 0.151 1.112 0.76 2.157 1.827 3.135z" fill="#000000" data-fill-palette-color="primary"></path><path d="M51.879 48.687l-1.698 1.441-9.105-10.726 1.415-1.2 1.493 1.438 0.042-0.035c0.024-0.927 0.168-1.809 0.433-2.644 0.264-0.825 0.717-1.511 1.36-2.057v0c0.821-0.697 1.622-1.057 2.404-1.081 0.771-0.025 1.533 0.192 2.285 0.651v0c0.048-1.091 0.203-2.077 0.467-2.959 0.263-0.882 0.714-1.594 1.351-2.135v0c1.098-0.932 2.218-1.272 3.359-1.019 1.141 0.253 2.293 1.065 3.456 2.436v0l5.785 6.815-1.689 1.434-5.601-6.599c-0.866-1.021-1.667-1.62-2.401-1.799-0.733-0.189-1.449 0.013-2.148 0.606v0c-0.827 0.702-1.263 2.06-1.309 4.075v0l6.633 7.814-1.706 1.448-5.601-6.599c-0.866-1.021-1.664-1.623-2.393-1.806-0.733-0.189-1.452 0.016-2.156 0.613v0c-0.827 0.702-1.263 2.06-1.309 4.075v0z" fill="#000000" data-fill-palette-color="primary"></path><path d="M72.557 33.447v0c-1.001 0.608-2.018 0.826-3.051 0.653-1.027-0.177-1.871-0.809-2.532-1.897v0c-0.801-1.318-0.82-2.695-0.057-4.129 0.767-1.428 2.352-3.072 4.756-4.933v0c-0.321-0.529-0.699-0.989-1.133-1.381-0.44-0.388-0.933-0.625-1.479-0.71-0.556-0.088-1.17 0.072-1.841 0.48v0c-0.715 0.434-1.299 0.981-1.751 1.638-0.456 0.651-0.829 1.27-1.12 1.855v0l-1.513-0.83c0.306-0.688 0.764-1.447 1.374-2.278 0.604-0.827 1.395-1.537 2.371-2.13v0c1.461-0.888 2.789-1.077 3.984-0.569 1.195 0.509 2.24 1.5 3.136 2.974v0l4.505 7.416-1.586 0.964-1.033-1.365-0.075 0.045c-0.287 0.83-0.666 1.622-1.136 2.376-0.466 0.76-1.073 1.367-1.819 1.821zM72.141 31.605v0c0.609-0.37 1.092-0.859 1.446-1.466 0.359-0.601 0.682-1.351 0.971-2.25v0l-2.114-3.479c-1.281 1.017-2.244 1.912-2.889 2.687-0.641 0.781-1.018 1.478-1.13 2.091-0.113 0.613-0.007 1.187 0.318 1.723v0c0.434 0.715 0.958 1.1 1.57 1.153 0.616 0.06 1.225-0.093 1.828-0.459z" fill="#000000" data-fill-palette-color="primary"></path><path d="M85.265 26.297l-2.029 0.919-5.807-12.815 1.69-0.766 1.022 1.754 0.05-0.023c0.34-0.889 0.763-1.7 1.27-2.433 0.5-0.73 1.194-1.296 2.082-1.698v0c1.332-0.604 2.505-0.624 3.52-0.062 1.014 0.563 1.892 1.663 2.634 3.3v0l3.69 8.143-2.008 0.91-3.573-7.884c-0.553-1.219-1.151-2.019-1.795-2.398-0.653-0.383-1.424-0.373-2.311 0.029v0c-0.663 0.3-1.183 0.748-1.561 1.342-0.371 0.592-0.74 1.374-1.105 2.347v0z" fill="#000000" data-fill-palette-color="primary"></path><path d="M101.988 20.293v0c-1.12 0.343-2.16 0.304-3.119-0.118-0.952-0.424-1.614-1.245-1.987-2.462v0c-0.452-1.475-0.131-2.814 0.962-4.016 1.095-1.195 3.036-2.399 5.824-3.61v0c-0.181-0.591-0.434-1.13-0.758-1.618-0.331-0.485-0.751-0.836-1.259-1.052-0.517-0.222-1.151-0.218-1.903 0.012v0c-0.8 0.245-1.5 0.631-2.099 1.156-0.602 0.519-1.116 1.027-1.543 1.523v0l-1.263-1.177c0.466-0.592 1.097-1.215 1.893-1.87 0.789-0.653 1.73-1.146 2.823-1.481v0c1.635-0.501 2.969-0.358 4.001 0.43 1.033 0.787 1.801 2.005 2.307 3.654v0l2.541 8.297-1.774 0.543-0.666-1.577-0.083 0.026c-0.483 0.734-1.045 1.408-1.686 2.023-0.639 0.622-1.376 1.061-2.211 1.317zM102.038 18.405v0c0.682-0.209 1.269-0.564 1.762-1.065 0.495-0.494 0.994-1.141 1.495-1.941v0l-1.193-3.893c-1.492 0.67-2.646 1.301-3.461 1.893-0.813 0.599-1.35 1.182-1.61 1.749-0.26 0.567-0.299 1.149-0.116 1.748v0c0.245 0.8 0.657 1.302 1.237 1.505 0.582 0.21 1.21 0.212 1.885 0.004z" fill="#000000" data-fill-palette-color="primary"></path><path d="M119.622 22.525v0c-1.721 0.296-3.164 0.211-4.329-0.253-1.172-0.463-1.861-1.294-2.067-2.491v0c-0.105-0.61-0.021-1.218 0.251-1.827 0.266-0.599 0.676-1.161 1.228-1.683v0l-0.02-0.119c-0.373-0.15-0.71-0.395-1.012-0.734-0.301-0.332-0.498-0.775-0.594-1.327v0c-0.101-0.588-0.025-1.133 0.229-1.634 0.262-0.495 0.544-0.895 0.846-1.197v0l-0.02-0.119c-0.521-0.28-1.019-0.711-1.496-1.293-0.469-0.584-0.775-1.288-0.916-2.113v0c-0.174-1.011-0.091-1.926 0.248-2.745 0.345-0.827 0.874-1.509 1.587-2.044 0.712-0.543 1.533-0.895 2.466-1.055v0c0.387-0.067 0.751-0.096 1.092-0.088 0.342 0.015 0.644 0.052 0.905 0.11v0l4.841-0.831 0.288 1.678-2.915 0.501c0.402 0.278 0.758 0.652 1.068 1.123 0.318 0.477 0.53 1.02 0.634 1.63v0c0.169 0.983 0.089 1.875-0.238 2.677-0.32 0.801-0.83 1.464-1.53 1.99-0.694 0.518-1.514 0.858-2.46 1.021v0c-0.344 0.059-0.706 0.081-1.086 0.064-0.379-0.016-0.74-0.076-1.082-0.179v0c-0.222 0.252-0.401 0.527-0.535 0.822-0.135 0.289-0.169 0.631-0.101 1.025v0c0.079 0.459 0.315 0.802 0.709 1.031 0.399 0.219 1.072 0.248 2.019 0.085v0l2.743-0.471c1.606-0.276 2.857-0.214 3.753 0.186 0.887 0.394 1.429 1.161 1.625 2.301v0c0.145 0.846-0.003 1.68-0.445 2.502-0.449 0.823-1.156 1.546-2.12 2.169-0.972 0.617-2.161 1.047-3.566 1.288zM117.455 10.228v0c0.832-0.143 1.497-0.571 1.994-1.284 0.498-0.713 0.658-1.586 0.481-2.619v0c-0.18-1.047-0.618-1.817-1.316-2.31-0.703-0.485-1.475-0.655-2.314-0.511v0c-0.853 0.147-1.524 0.564-2.011 1.254-0.486 0.696-0.639 1.568-0.459 2.615v0c0.177 1.033 0.62 1.802 1.327 2.308 0.707 0.506 1.473 0.688 2.298 0.547zM119.637 20.939v0c0.911-0.156 1.679-0.432 2.306-0.828 0.619-0.394 1.077-0.846 1.373-1.354 0.289-0.507 0.392-1.009 0.307-1.504v0c-0.116-0.674-0.432-1.096-0.949-1.266-0.518-0.177-1.246-0.185-2.185-0.023v0l-2.485 0.427c-0.251 0.043-0.537 0.074-0.859 0.092-0.32 0.026-0.646 0.022-0.977-0.01v0c-0.455 0.447-0.761 0.902-0.917 1.365-0.157 0.463-0.2 0.902-0.128 1.318v0c0.131 0.76 0.593 1.301 1.386 1.622 0.802 0.327 1.845 0.381 3.128 0.161z" fill="#000000" data-fill-palette-color="primary"></path><path d="M134.98 14.747v0c-1.242 0.067-2.385-0.167-3.426-0.701-1.042-0.534-1.894-1.333-2.556-2.398-0.655-1.065-1.024-2.364-1.107-3.897v0c-0.082-1.526 0.144-2.861 0.68-4.005 0.544-1.137 1.279-2.029 2.206-2.677 0.934-0.648 1.935-1.001 3.003-1.058v0c1.766-0.095 3.167 0.419 4.205 1.544 1.038 1.132 1.611 2.715 1.721 4.75v0c0.027 0.509 0.022 0.946-0.017 1.312v0l-9.58 0.517c0.162 1.522 0.697 2.728 1.605 3.619 0.908 0.884 2.052 1.288 3.432 1.214v0c0.705-0.038 1.343-0.167 1.914-0.388 0.578-0.221 1.109-0.512 1.593-0.872v0l0.859 1.341c-0.588 0.454-1.245 0.836-1.971 1.145-0.734 0.316-1.587 0.501-2.561 0.554zM130 6.522v0l7.716-0.416c-0.08-1.475-0.449-2.581-1.108-3.318-0.666-0.736-1.566-1.074-2.7-1.013v0c-1.017 0.055-1.908 0.5-2.671 1.336-0.757 0.828-1.169 1.965-1.237 3.411z" fill="#000000" data-fill-palette-color="primary"></path><path d="M146.73 14.62l-2.218-0.204 1.284-14.01 1.848 0.169 0.018 2.073 0.054 0.005c0.679-0.632 1.409-1.146 2.191-1.542 0.774-0.389 1.581-0.546 2.422-0.468v0c1.072 0.098 1.891 0.418 2.455 0.959 0.558 0.533 0.936 1.229 1.135 2.088v0c0.812-0.729 1.625-1.309 2.439-1.739 0.814-0.43 1.638-0.606 2.471-0.53v0c1.435 0.131 2.461 0.693 3.079 1.685 0.618 0.992 0.845 2.383 0.68 4.173v0l-0.815 8.902-2.207-0.202 0.79-8.62c0.122-1.333-0.01-2.325-0.396-2.973-0.378-0.656-1.024-1.025-1.937-1.109v0c-1.08-0.099-2.355 0.541-3.826 1.918v0l-0.935 10.206-2.228-0.204 0.79-8.619c0.122-1.333-0.006-2.324-0.386-2.973-0.378-0.656-1.028-1.026-1.948-1.11v0c-1.08-0.099-2.355 0.541-3.825 1.918v0z" fill="#000000" data-fill-palette-color="primary"></path><path d="M174.396 19.328v0c-1.205-0.311-2.223-0.878-3.055-1.702-0.832-0.824-1.403-1.843-1.713-3.057-0.303-1.213-0.263-2.563 0.121-4.05v0c0.382-1.48 1.001-2.684 1.857-3.612 0.861-0.92 1.831-1.549 2.911-1.887 1.086-0.336 2.147-0.37 3.182-0.102v0c1.712 0.442 2.893 1.356 3.543 2.74 0.648 1.392 0.717 3.075 0.207 5.048v0c-0.127 0.493-0.265 0.909-0.412 1.246v0l-9.289-2.398c-0.304 1.5-0.158 2.811 0.438 3.934 0.599 1.116 1.567 1.848 2.906 2.193v0c0.683 0.176 1.331 0.246 1.941 0.209 0.618-0.036 1.212-0.153 1.782-0.352v0l0.414 1.539c-0.697 0.256-1.439 0.421-2.224 0.496-0.795 0.08-1.664-0.001-2.609-0.245zM172.13 9.984v0l7.483 1.932c0.369-1.43 0.351-2.596-0.056-3.498-0.413-0.903-1.169-1.497-2.268-1.78v0c-0.986-0.255-1.97-0.099-2.95 0.467-0.971 0.561-1.708 1.521-2.209 2.879z" fill="#000000" data-fill-palette-color="primary"></path><path d="M185.88 22.704l-2.077-0.802 5.067-13.125 1.731 0.668-0.534 1.959 0.051 0.019c0.872-0.381 1.748-0.647 2.625-0.8 0.871-0.155 1.761-0.057 2.671 0.294v0c1.364 0.527 2.201 1.349 2.511 2.467 0.309 1.118 0.141 2.515-0.506 4.192v0l-3.22 8.34-2.057-0.795 3.117-8.074c0.482-1.249 0.633-2.236 0.453-2.961-0.185-0.734-0.732-1.277-1.641-1.628v0c-0.679-0.262-1.363-0.319-2.051-0.172-0.682 0.15-1.498 0.436-2.449 0.857v0z" fill="#000000" data-fill-palette-color="primary"></path><path d="M202.937 30.925v0c-1.305-0.693-2.009-1.553-2.114-2.581-0.115-1.025 0.152-2.148 0.8-3.369v0l3.732-7.028-1.841-0.978 0.804-1.513 1.998 0.938 2.377-3.917 1.648 0.876-2.145 4.039 3.413 1.812-0.855 1.61-3.413-1.812-3.757 7.075c-0.41 0.771-0.586 1.444-0.528 2.019 0.054 0.581 0.444 1.064 1.17 1.449v0c0.219 0.116 0.462 0.216 0.73 0.301 0.268 0.085 0.556 0.139 0.865 0.163v0l-0.298 1.609c-0.406-0.026-0.836-0.094-1.289-0.202-0.453-0.109-0.885-0.272-1.297-0.491z" fill="#000000" data-fill-palette-color="primary"></path><path d="M220.091 42.372v0c-0.829-0.641-1.488-1.377-1.978-2.207-0.495-0.834-0.807-1.692-0.935-2.572v0l1.63-0.395c0.169 0.756 0.434 1.449 0.795 2.077 0.366 0.633 0.903 1.223 1.611 1.771v0c0.748 0.579 1.452 0.834 2.112 0.765 0.65-0.067 1.167-0.349 1.55-0.844v0c0.303-0.391 0.431-0.812 0.383-1.262-0.046-0.44-0.193-0.904-0.442-1.391-0.248-0.477-0.527-0.96-0.838-1.449v0c-0.391-0.624-0.732-1.266-1.024-1.924-0.296-0.652-0.447-1.307-0.453-1.965 0-0.654 0.233-1.282 0.701-1.886v0c0.677-0.875 1.577-1.361 2.701-1.458 1.129-0.092 2.296 0.327 3.498 1.258v0c0.691 0.534 1.238 1.147 1.643 1.836 0.399 0.686 0.673 1.372 0.822 2.058v0l-1.597 0.406c-0.173-0.585-0.407-1.115-0.701-1.591-0.3-0.48-0.703-0.917-1.21-1.308v0c-0.731-0.565-1.395-0.813-1.993-0.742-0.602 0.077-1.068 0.328-1.398 0.755v0c-0.41 0.529-0.492 1.105-0.246 1.727 0.24 0.618 0.598 1.314 1.076 2.088v0c0.431 0.656 0.809 1.321 1.134 1.995 0.325 0.674 0.491 1.351 0.5 2.029 0.009 0.678-0.254 1.363-0.789 2.054v0c-0.695 0.898-1.637 1.402-2.825 1.512-1.189 0.11-2.431-0.335-3.727-1.337z" fill="#000000" data-fill-palette-color="primary"></path><path d="M223.445 52.76v0c-0.225-0.218-0.414-0.441-0.566-0.67-0.158-0.234-0.285-0.464-0.381-0.689v0l1.552-0.927c0.09 0.158 0.185 0.316 0.285 0.474 0.105 0.163 0.213 0.298 0.323 0.404v0c0.585 0.567 1.274 0.819 2.065 0.754 0.791-0.064 1.611-0.314 2.458-0.749v0l0.996-0.525 5.743-14.101 1.646 1.595-3.404 7.765c-0.274 0.596-0.565 1.226-0.874 1.89-0.309 0.664-0.607 1.306-0.895 1.928v0l0.094 0.091c0.592-0.328 1.201-0.67 1.828-1.024 0.622-0.35 1.216-0.686 1.783-1.009v0l7.41-3.884 1.568 1.518-14.489 7.27c-0.863 0.431-1.717 0.753-2.563 0.967-0.835 0.214-1.64 0.25-2.414 0.108-0.779-0.147-1.501-0.542-2.165-1.186z" fill="#000000" data-fill-palette-color="primary"></path><path d="M239.939 61.716v0c-0.674-0.803-1.162-1.661-1.464-2.576-0.307-0.92-0.43-1.825-0.368-2.713v0l1.677-0.039c0.005 0.775 0.116 1.508 0.335 2.198 0.223 0.696 0.623 1.387 1.198 2.073v0c0.608 0.725 1.242 1.123 1.902 1.196 0.65 0.072 1.214-0.093 1.694-0.495v0c0.379-0.318 0.593-0.702 0.643-1.153 0.049-0.44 0.003-0.924-0.137-1.452-0.141-0.518-0.311-1.05-0.512-1.595v0c-0.249-0.693-0.447-1.392-0.591-2.097-0.151-0.7-0.159-1.372-0.026-2.016 0.138-0.639 0.5-1.204 1.086-1.695v0c0.847-0.711 1.83-0.995 2.948-0.85 1.123 0.15 2.174 0.807 3.152 1.971v0c0.561 0.669 0.966 1.383 1.215 2.144 0.244 0.755 0.366 1.483 0.367 2.186v0l-1.648 0.057c-0.045-0.608-0.161-1.176-0.347-1.703-0.191-0.533-0.492-1.045-0.904-1.536v0c-0.594-0.708-1.191-1.09-1.79-1.148-0.605-0.053-1.113 0.094-1.526 0.44v0c-0.513 0.43-0.715 0.976-0.608 1.636 0.103 0.655 0.306 1.411 0.608 2.269v0c0.282 0.732 0.51 1.462 0.684 2.19 0.174 0.728 0.193 1.424 0.058 2.089-0.136 0.665-0.538 1.278-1.206 1.84v0c-0.869 0.73-1.897 1.022-3.083 0.877-1.186-0.145-2.305-0.844-3.357-2.098z" fill="#000000" data-fill-palette-color="primary"></path><path d="M248.299 72.923v0c-0.837-1.217-1.065-2.306-0.683-3.266 0.372-0.962 1.127-1.835 2.266-2.618v0l6.557-4.508-1.182-1.718 1.413-0.971 1.339 1.755 3.917-2.376 1.057 1.538-3.768 2.592 2.189 3.183-1.502 1.033-2.189-3.184-6.602 4.54c-0.72 0.495-1.186 1.01-1.4 1.546-0.22 0.54-0.098 1.149 0.368 1.826v0c0.14 0.204 0.31 0.405 0.508 0.604 0.199 0.199 0.429 0.38 0.692 0.545v0l-1.008 1.289c-0.348-0.211-0.698-0.469-1.049-0.775-0.352-0.306-0.659-0.651-0.923-1.035z" fill="#000000" data-fill-palette-color="primary"></path><path d="M254.481 83.441v0c-0.603-1.088-0.892-2.218-0.868-3.388 0.025-1.17 0.372-2.286 1.04-3.347 0.672-1.055 1.679-1.954 3.022-2.699v0c1.336-0.741 2.636-1.12 3.899-1.138 1.26-0.008 2.384 0.263 3.371 0.814 0.991 0.557 1.746 1.303 2.265 2.239v0c0.857 1.546 1.007 3.032 0.449 4.456-0.565 1.428-1.738 2.636-3.52 3.623v0c-0.445 0.247-0.841 0.433-1.188 0.559v0l-4.652-8.391c-1.298 0.811-2.149 1.819-2.553 3.026-0.398 1.203-0.262 2.408 0.408 3.617v0c0.342 0.617 0.737 1.135 1.185 1.552 0.451 0.424 0.945 0.774 1.481 1.051v0l-0.831 1.36c-0.665-0.33-1.296-0.754-1.891-1.273-0.605-0.521-1.144-1.209-1.617-2.061zM259.701 75.367v0l3.747 6.758c1.292-0.716 2.125-1.532 2.5-2.446 0.371-0.921 0.282-1.878-0.269-2.871v0c-0.494-0.891-1.284-1.497-2.369-1.82-1.075-0.319-2.278-0.193-3.609 0.379z" fill="#000000" data-fill-palette-color="primary"></path><path d="M259.73 93.953l-0.786-2.083 13.163-4.968 0.655 1.735-1.857 0.923 0.019 0.051c0.865 0.335 1.647 0.767 2.345 1.297 0.688 0.526 1.182 1.183 1.479 1.973v0c0.38 1.008 0.45 1.883 0.211 2.627-0.236 0.735-0.697 1.379-1.382 1.934v0c1.011 0.412 1.887 0.89 2.629 1.434 0.742 0.544 1.261 1.208 1.557 1.99v0c0.509 1.348 0.452 2.517-0.17 3.506-0.622 0.989-1.774 1.801-3.456 2.436v0l-8.363 3.157-0.783-2.073 8.098-3.057c1.253-0.473 2.087-1.025 2.502-1.655 0.424-0.627 0.475-1.369 0.151-2.227v0c-0.383-1.014-1.515-1.882-3.398-2.603v0l-9.588 3.619-0.79-2.093 8.097-3.057c1.253-0.473 2.088-1.021 2.506-1.645 0.424-0.627 0.474-1.373 0.147-2.238v0c-0.383-1.014-1.515-1.882-3.397-2.602v0z" fill="#000000" data-fill-palette-color="primary"></path><path d="M0.331 145.399c0-1.18 0.957-2.137 2.136-2.136 1.18 0 2.137 0.957 2.137 2.136 0 1.18-0.957 2.137-2.137 2.137-1.18 0-2.137-0.957-2.136-2.137z" fill="#000000" data-fill-palette-color="primary"></path><path d="M275.116 145.399c0-1.18 0.957-2.137 2.137-2.136 1.18 0 2.137 0.957 2.136 2.136 0 1.18-0.957 2.137-2.136 2.137-1.18 0-2.137-0.957-2.137-2.137z" fill="#000000" data-fill-palette-color="primary"></path></g><g id="text-1"><path d="M1.705 187.466l-0.635-2.077 13.164-4.02 0.529 1.733-1.829 0.775 0.013 0.042c0.822 0.449 1.553 0.964 2.194 1.544 0.648 0.578 1.112 1.323 1.39 2.234v0c0.419 1.371 0.291 2.509-0.383 3.416-0.672 0.913-1.85 1.626-3.535 2.141v0l-8.361 2.553-0.628-2.056 8.09-2.471c1.253-0.383 2.106-0.864 2.56-1.444 0.447-0.578 0.531-1.326 0.251-2.245v0c-0.206-0.675-0.574-1.232-1.104-1.671-0.523-0.441-1.234-0.901-2.134-1.38v0z" fill="#000000" data-fill-palette-color="primary"></path><path d="M83.308 279.194v0c-1.02-0.445-1.857-1.12-2.51-2.025-0.663-0.901-1.046-1.961-1.149-3.18-0.112-1.216 0.137-2.524 0.748-3.925v0c0.611-1.401 1.404-2.48 2.377-3.238 0.964-0.754 2.005-1.201 3.122-1.342 1.107-0.136 2.171 0.018 3.191 0.464v0c1.04 0.454 1.891 1.135 2.551 2.042 0.657 0.914 1.037 1.981 1.14 3.2 0.107 1.229-0.146 2.544-0.756 3.945v0c-0.611 1.401-1.401 2.473-2.369 3.218-0.964 0.754-2.002 1.195-3.113 1.322-1.114 0.133-2.191-0.027-3.232-0.481zM84.029 277.543v0c1.127 0.492 2.24 0.434 3.339-0.175 1.096-0.602 1.967-1.643 2.613-3.123v0c0.649-1.487 0.823-2.841 0.521-4.06-0.302-1.219-1.016-2.075-2.144-2.566v0c-0.727-0.317-1.464-0.393-2.211-0.227-0.757 0.17-1.455 0.56-2.094 1.17-0.636 0.604-1.171 1.402-1.605 2.396v0c-0.646 1.481-0.82 2.826-0.523 4.036 0.302 1.219 1.003 2.069 2.104 2.549z" fill="#000000" data-fill-palette-color="primary"></path><path d="M202.214 276.674v0c-1.31 0.6-2.397 0.638-3.261 0.114-0.862-0.518-1.576-1.395-2.143-2.632v0l-3.238-7.065-1.855 0.851-0.7-1.528 1.929-1.004-1.632-4.163 1.647-0.755 1.86 4.058 3.443-1.578 0.746 1.628-3.443 1.577 3.26 7.115c0.355 0.774 0.774 1.314 1.259 1.62 0.488 0.297 1.096 0.278 1.824-0.055v0c0.225-0.103 0.449-0.234 0.672-0.392 0.227-0.152 0.438-0.345 0.635-0.58v0l1.078 1.199c-0.264 0.297-0.575 0.588-0.933 0.872-0.348 0.288-0.731 0.527-1.148 0.718z" fill="#000000" data-fill-palette-color="primary"></path><path d="M277.822 189.235v0c-0.376 1.148-0.991 2.103-1.846 2.864-0.857 0.768-1.887 1.262-3.092 1.479-1.207 0.225-2.523 0.104-3.947-0.362v0c-1.418-0.464-2.55-1.145-3.396-2.043-0.856-0.893-1.413-1.879-1.673-2.96-0.261-1.073-0.228-2.108 0.098-3.103v0c0.539-1.646 1.507-2.742 2.903-3.288 1.396-0.546 3.042-0.508 4.936 0.113v0c0.477 0.156 0.873 0.316 1.187 0.48v0l-2.919 8.91c1.447 0.397 2.734 0.337 3.862-0.182 1.134-0.517 1.911-1.415 2.329-2.694v0c0.213-0.65 0.322-1.276 0.329-1.88 0.006-0.603-0.073-1.192-0.237-1.766v0l1.524-0.304c0.208 0.696 0.324 1.431 0.346 2.203 0.029 0.775-0.105 1.619-0.404 2.533zM268.573 190.857v0l2.351-7.178c-1.376-0.451-2.514-0.506-3.415-0.165-0.909 0.345-1.537 1.047-1.884 2.105v0c-0.31 0.947-0.221 1.915 0.268 2.901 0.488 0.987 1.382 1.766 2.68 2.337z" fill="#000000" data-fill-palette-color="primary"></path></g></svg></g></svg></g></svg></g></svg></g><defs></defs></svg><rect width="279.72" height="279.72" fill="none" stroke="none" visibility="hidden"></rect></g></svg></g></svg>